<svg xmlns="http://www.w3.org/2000/svg" viewBox="0 0 61.23 61.89"><defs><style>.cls-1{fill:none;stroke:#000;stroke-linecap:round;stroke-linejoin:round;stroke-width:3px;}</style></defs><title>Asset 6</title><g id="Layer_2" data-name="Layer 2"><g id="Layer_2-2" data-name="Layer 2"><path class="cls-1" d="M54.5,49.93H52a5.24,5.24,0,0,0,0-10.47H49.86c-5.4-2.18-4.43-9.62-4.43-9.62s-8.19,2.32-6.13,9.62H28.89a5.24,5.24,0,0,0,0,10.47h-2.5a5.23,5.23,0,1,0,0,10.46H54.5a5.23,5.23,0,0,0,0-10.46Z"/><path class="cls-1" d="M27.94,60.39H6.65A5.14,5.14,0,0,1,1.5,55.24V25.77a8.62,8.62,0,0,1,8.61-8.61H22.46a8.61,8.61,0,0,1,8.61,8.61V39.46"/><path class="cls-1" d="M8.75,17.16H23.83V12A2.13,2.13,0,0,0,21.69,9.9H10.89A2.13,2.13,0,0,0,8.75,12Z"/><path class="cls-1" d="M12.85,1.5h6.87a.91.91,0,0,1,.91.91V9.9a0,0,0,0,1,0,0H11.95a0,0,0,0,1,0,0V2.41A.91.91,0,0,1,12.85,1.5Z"/><line class="cls-1" x1="16.29" y1="1.5" x2="16.29" y2="4.36"/><rect class="cls-1" x="8.75" y="26" width="15.08" height="10.93" rx="3.24"/><line class="cls-1" x1="52" y1="49.93" x2="40.45" y2="49.93"/></g></g></svg>